Coordinates
version=1
nRows=10
nColumns=40
inDegrees=yes

Units are S.I. units (second, meters, Newtons, ...)
Angles are in degrees.

endheader
time	pelvis_tilt	pelvis_list	pelvis_rotation	pelvis_tx	pelvis_ty	pelvis_tz	hip_flexion_r	hip_adduction_r	hip_rotation_r	knee_angle_r	knee_angle_r_beta	ankle_angle_r	subtalar_angle_r	mtp_angle_r	hip_flexion_l	hip_adduction_l	hip_rotation_l	knee_angle_l	knee_angle_l_beta	ankle_angle_l	subtalar_angle_l	mtp_angle_l	lumbar_extension	lumbar_bending	lumbar_rotation	arm_flex_r	arm_add_r	arm_rot_r	elbow_flex_r	pro_sup_r	wrist_flex_r	wrist_dev_r	arm_flex_l	arm_add_l	arm_rot_l	elbow_flex_l	pro_sup_l	wrist_flex_l	wrist_dev_l
     34.18000000	     -1.74855422	     -5.76768517	      0.23444766	      0.90507020	      0.92973512	      0.52721911	      9.60013413	      6.02220501	     -9.43326200	     18.74729293	     18.74729293	     13.09572681	     -1.04490316	     -2.21325628	      7.36523127	    -15.13244081	     -3.15068448	     42.81803137	     42.81803137	      7.51642788	    -15.48845967	    -10.95895772	     -6.76616711	      5.08322866	      1.21274221	      0.66629724	    -13.57752346	      0.46632789	     23.13098687	     45.61690626	      0.00000000	      0.00000000	     11.27974194	    -12.70000503	     -4.13431812	     60.92825335	     45.35367000	      0.00000000	      0.00000000
     34.20421429	     -1.70017183	     -5.94056583	      0.79129327	      0.90307213	      0.92688127	      0.53102475	     10.40450708	      6.49519027	     -9.01769566	     20.62710204	     20.62710204	     13.89511831	     -3.21592214	     -2.20849902	     10.93875226	    -15.68690943	     -1.32165683	     48.58373245	     48.58373245	      5.97035536	    -16.93280194	     -9.06565503	     -7.04468983	      4.98250374	      1.08731418	      3.69803241	    -13.44118771	      0.33503083	     23.67329909	     45.69766898	      0.00000000	      0.00000000	      9.62029472	    -12.07413899	     -3.48702373	     56.39901644	     45.34967864	      0.00000000	      0.00000000
     34.22842857	     -1.63724166	     -6.09955614	      1.38187286	      0.90098059	      0.92364374	      0.53470429	     11.28146077	      6.91946665	     -8.77046728	     22.69559087	     22.69559087	     14.89045011	     -5.14348892	     -1.88311429	     14.50354393	    -16.01652918	      0.58251335	     54.09949174	     54.09949174	      5.72764303	    -17.50942727	     -3.90388214	     -7.35492972	      4.89983618	      1.10974287	      6.67979340	    -13.46255630	      0.02268120	     24.79568165	     45.77498721	      0.00000000	      0.00000000	      8.29082108	    -11.35483536	     -2.60520039	     50.93460331	     45.37589209	      0.00000000	      0.00000000
     34.25264286	     -1.52562969	     -6.25175493	      1.98698447	      0.89895112	      0.92027436	      0.53820924	     12.06199466	      7.40020185	     -8.36802181	     24.66709359	     24.66709359	     15.81841755	     -7.31471672	     -1.41608579	     17.77878737	    -16.16951962	      2.38354524	     58.81214427	     58.81214427	      5.95514519	    -18.00725915	      2.02471247	     -7.71303439	      4.82328598	      1.05439780	      9.82530842	    -13.53567268	     -0.21199421	     26.13195550	     45.81074119	      0.00000000	      0.00000000	      7.01317406	    -10.65096239	     -1.73168571	     45.28876402	     45.36696369	      0.00000000	      0.00000000
     34.27685714	     -1.40611956	     -6.35552723	      2.61027617	      0.89702603	      0.91688263	      0.54133847	     12.79688045	      7.78229175	     -8.15220731	     26.59036534	     26.59036534	     16.78666586	     -9.12041918	     -0.88735628	     20.73728353	    -16.17590653	      3.93867926	     62.54833237	     62.54833237	      6.67569738	    -18.45929613	      7.98793308	     -8.07132136	      4.71563942	      1.04459115	     12.97145991	    -13.70513981	     -0.51927479	     27.87789758	     45.82301827	      0.00000000	      0.00000000	      5.70606288	     -9.98754175	     -0.84149853	     39.94872109	     45.34640422	      0.00000000	      0.00000000
     34.30107143	     -1.23100411	     -6.44646715	      3.25510011	      0.89521731	      0.91379532	      0.54404518	     13.30968267	      8.18834359	     -7.86528790	     28.19399961	     28.19399961	     17.61416303	    -10.94131649	     -0.26598320	     23.30788985	    -16.20654179	      5.11388891	     65.19425467	     65.19425467	      7.51874336	    -18.88552741	     12.75667973	     -8.47375022	      4.64492610	      0.85751874	     16.19173040	    -13.90819509	     -0.80246718	     29.87451365	     45.80838882	      0.00000000	      0.00000000	      4.28127702	     -9.40591935	      0.08611370	     35.15847023	     45.28303568	      0.00000000	      0.00000000
     34.32528571	     -1.10502976	     -6.46587975	      3.92180188	      0.89348872	      0.91102219	      0.54621412	     13.77228637	      8.44965916	     -7.75663036	     29.62978531	     29.62978531	     18.42105572	    -12.38838960	      0.38269159	     25.59832664	    -16.16836667	      5.94461801	     66.73140277	     66.73140277	      8.75126666	    -19.19767347	     16.65509004	     -8.80184559	      4.53288922	      0.81970459	     19.28008974	    -14.24669002	     -1.14326256	     32.24457451	     45.77416202	      0.00000000	      0.00000000	      2.81557070	     -8.87940818	      1.10416921	     31.10774405	     45.18909056	      0.00000000	      0.00000000
     34.34950000	     -1.02989513	     -6.43893330	      4.62072844	      0.89189485	      0.90880549	      0.54784117	     14.05300806	      8.62201332	     -7.75818637	     30.62200309	     30.62200309	     18.91268082	    -13.65554449	      0.51590218	     27.53349416	    -16.15020803	      6.37103008	     67.00806678	     67.00806678	      9.57719948	    -19.39306448	     17.53977738	     -9.06256096	      4.40922202	      0.35704861	     22.72578132	    -14.36436995	     -1.44144897	     34.45679600	     45.73231775	      0.00000000	      0.00000000	      0.59753785	     -8.54959066	      1.61655242	     28.92176691	     45.09473942	      0.00000000	      0.00000000
     34.37371429	     -0.93788834	     -6.36360188	      5.34804433	      0.89031732	      0.90753722	      0.54872637	     14.08685461	      8.70116022	     -7.80447068	     31.22249841	     31.22249841	     19.56643844	    -14.54087886	      1.55009356	     29.18884776	    -15.86275892	      6.72991589	     66.35193090	     66.35193090	     11.75090628	    -19.47418241	     21.06938814	     -9.33328419	      4.32868953	      0.64288869	     25.44032316	    -15.08360904	     -1.84083106	     37.62641840	     45.65701500	      0.00000000	      0.00000000	     -0.53034222	     -8.05806987	      3.14343148	     25.45196337	     44.88474719	      0.00000000	      0.00000000
     34.39792857	     -1.01552799	     -6.13719284	      6.10739426	      0.88872229	      0.90689951	      0.54895668	     14.09796725	      8.50518396	     -8.05472886	     31.47526598	     31.47526598	     19.86378036	    -15.15426167	      1.76668662	     30.51651045	    -15.33468047	      6.81212582	     64.42523139	     64.42523139	     12.97627676	    -19.51906264	     21.13502060	     -9.40493836	      4.12511354	      0.31320994	     28.71553213	    -15.36258959	     -2.20998900	     40.05958314	     45.60682594	      0.00000000	      0.00000000	     -2.52951332	     -7.76753120	      3.70101041	     23.99101391	     44.76615230	      0.00000000	      0.00000000
